<svg id="Layer_1" data-name="Layer 1" xmlns="http://www.w3.org/2000/svg" viewBox="0 0 472 138"><defs><style>.cls-1{fill:#404041;}.cls-2{fill:#20c3f3;}</style></defs><title>logo</title><path class="cls-1" d="M1.72,38.71,6.43,33c2.5-3,4-3,7.57-3H68V40H13a3.13,3.13,0,0,0-3,3V62H66V72H10V91a3.13,3.13,0,0,0,3,3H68v10H14c-3.6,0-5.07,0-7.57-3L1.72,95.29C.31,93.58,0,92.8,0,90V44C0,41.2.31,40.41,1.72,38.71Zm404,0L410.43,33c2.5-3,4-3,7.57-3h54V40H417a3.13,3.13,0,0,0-3,3V91a3.13,3.13,0,0,0,3,3h55v10H418c-3.6,0-5.07,0-7.57-3l-4.71-5.75C404.31,93.58,404,92.8,404,90V44C404,41.2,404.31,40.41,405.72,38.71ZM128,86,99.71,39.69C99.09,38.61,98,39.08,98,40v64H88V38.68c0-2.93-.15-4.63,2.66-5.86l8.73-3.7c4.22-1.69,5.16-1.69,7.66,2.47L134,76c.78,1.39,1,2,2,2s1.22-.61,2-2L165,31.59c2.5-4.16,3.44-4.16,7.66-2.47l8.73,3.7c2.81,1.23,2.66,2.93,2.66,5.86V104H174V40c0-.92-1.09-1.39-1.71-.31L144,86ZM373.29,64H393L389,74H377.47L390,104H378L365.66,74H331L335,64h26.59l-9.23-22.44A2.12,2.12,0,0,0,350,40H338a2.12,2.12,0,0,0-2.32,1.56L310,104H298l29.55-70.74A4.64,4.64,0,0,1,332,30h24a4.64,4.64,0,0,1,4.45,3.26ZM272,30l7.33,4.14C282,35.52,282,36.91,282,40v64H272l0-63c0-1-1-1.58-1.66-.66l-41.93,61.8c-2.17,3.09-3.87,3.71-7.58,1.69l-8.36-4.32c-2.62-1.4-2.47-2.79-2.47-5.88V30h10V93c0,1.08,1.09,1.39,1.71.46l43.52-62.07C267.09,28.59,268.8,28.44,272,30Z"/><path class="cls-2" d="M367.91,128,364,138H306l3.91-10ZM414.09,10h-58L360,0h58Z"/></svg>